<?xml version="1.0" encoding="UTF-8"?>
<svg id="Layer_1" data-name="Layer 1" xmlns="http://www.w3.org/2000/svg" viewBox="0 0 1000 1000">
  <defs>
    <style>
      .cls-1 {
        fill: #fff;
      }

      .cls-2 {
        fill: #0f1720;
      }
    </style>
  </defs>
  <rect class="cls-2" width="1000" height="1000"/>
  <g id="Layer_2" data-name="Layer 2">
    <g>
      <path class="cls-1" d="M157.82,316.95c-23.48,39.1-35.22,75.35-35.22,108.75,0,23.79,5.78,40.81,17.35,51.07,11.56,10.26,30.82,15.4,57.78,15.4h145.03c24,0,36,7.66,36,22.97,0,11.08-4.22,19.75-12.65,26.03-8.44,6.27-20.31,9.41-35.61,9.41h-151.3c-25.22,0-45.39-3.26-60.52-9.77-21.04-9.13-37.56-23.18-49.56-42.16-12-18.98-18-40.6-18-64.88,0-32.58,10.61-71.52,31.83-116.81h-21.39c-19.48,0-29.22-7.82-29.22-23.46,0-9.78,4-18.04,12-24.8,8-6.76,17.74-10.14,29.22-10.14h44.87c15.65-24.44,36.69-47.98,63.13-70.62,33.74-28.51,70.17-42.76,109.3-42.76,25.73,0,47.04,7.41,63.91,22.24,16.87,14.83,25.3,33.72,25.3,56.69,0,32.75-16.26,57.84-48.78,75.27-22.09,11.73-57.22,17.6-105.39,17.6h-68.08ZM196.69,258.54h50.61c43.3,0,64.95-10.83,64.95-32.5,0-6.84-2.83-12.42-8.48-16.74-5.65-4.31-12.83-6.48-21.52-6.48-13.39,0-27.83,5.05-43.3,15.15-15.48,10.1-29.57,23.63-42.26,40.57Z"/>
      <path class="cls-1" d="M676.53,385.41l-160.43,253.17c-13.57,21.35-29.48,32.01-47.74,32.01-25.91,0-38.87-15.23-38.87-45.7l-4.17-164.46c0-29.81-2.74-49.89-8.22-60.24-5.48-10.34-16.04-15.52-31.69-15.52-14.44,0-28.56,6.96-42.39,20.89-13.82,13.93-20.74,28.15-20.74,42.64,0,11.9,3.95,21.38,11.87,28.47,7.91,7.09,18.48,10.63,31.69,10.63,3.13,0,6.26-.08,9.39-.25,3.65-.16,5.83-.24,6.52-.24,21.04,0,31.56,8.23,31.56,24.68,0,10.92-5.96,20-17.87,27.25-11.91,7.25-26.91,10.87-45,10.87-28.69,0-52.22-9-70.56-27-18.35-18-27.52-40.93-27.52-68.79,0-33.56,14.65-63.66,43.95-90.3,29.3-26.64,62.48-39.96,99.52-39.96s62.35,11.49,79.56,34.46c6.43,8.64,10.91,20.37,13.43,35.19,2.52,14.83,3.78,37.23,3.78,67.2v96.77l126.52-201.61,6.52-10.51c4.34-7,9.04-11.73,14.09-14.17,5.04-2.45,12.69-3.67,22.95-3.67l10.17-.24h45.91c24.17,0,36.26,7.82,36.26,23.46,0,10.92-4.26,19.47-12.78,25.66-8.52,6.19-20.35,9.29-35.48,9.29h-30.26Z"/>
      <path class="cls-1" d="M772.01,385.41h-36.52c-19.48,0-29.22-7.82-29.22-23.46,0-9.78,4-18.04,12-24.8,8-6.76,17.74-10.14,29.22-10.14h112.95c34.26,0,60.69,7.05,79.3,21.14,18.61,14.09,27.91,34.17,27.91,60.24,0,22.48-7,42.68-21,60.6-14,17.92-32.74,30.71-56.21,38.37,31.82,14.5,47.74,39.43,47.74,74.78,0,22.65-6.56,44.84-19.69,66.59-13.13,21.75-30.48,39.14-52.04,52.17-29.04,17.6-72.87,26.39-131.47,26.39h-38.35l-3.13,6.84c-12.17,25.25-21.74,43.09-28.69,53.52-6.96,10.42-15.91,20.36-26.87,29.81-29.05,24.93-62.17,37.39-99.39,37.39-30.44,0-55.6-8.47-75.52-25.41-19.91-16.95-29.87-38.53-29.87-64.76,0-16.78,4.26-32.38,12.78-46.8,8.52-14.42,20.09-25.62,34.69-33.6,18.95-10.26,44.69-15.4,77.21-15.4h91.04l123.12-283.47ZM623.58,727.28h-67.82c-34.09,0-51.13,11.4-51.13,34.21,0,9.12,3.69,16.86,11.09,23.21,7.39,6.35,16.39,9.53,27,9.53,15.82,0,30.87-5.91,45.13-17.72,14.26-11.81,26.17-28.22,35.74-49.24ZM722.18,668.88h21.13c37.21,0,65.48-6.03,84.78-18.08,12.35-7.65,22.39-18.16,30.13-31.52,7.73-13.36,11.61-26.8,11.61-40.32,0-15.96-5.09-27.21-15.26-33.72-10.17-6.51-27.87-9.77-53.08-9.77h-21.65l-57.65,133.43ZM805.14,477.05l15.65-.25c24.35,0,42.78-5.29,55.3-15.88,6.61-5.53,12.13-12.71,16.57-21.5,4.43-8.8,6.65-16.94,6.65-24.44,0-13.52-6.35-22.48-19.04-26.88-5.04-1.79-15.48-2.69-31.3-2.69h-3.92l-39.91,91.64Z"/>
    </g>
  </g>
</svg>